<?xml version="1.0"?>
<svg xmlns="http://www.w3.org/2000/svg" xmlns:xlink="http://www.w3.org/1999/xlink" xmlns:svgjs="http://svgjs.com/svgjs" version="1.1" width="512" height="512" x="0" y="0" viewBox="0 0 512 512" style="enable-background:new 0 0 512 512" xml:space="preserve" class=""><g><path xmlns="http://www.w3.org/2000/svg" d="m464 160h16v16h-16z" fill="#12a19a" data-original="#dc4d41" style="" class=""/><path xmlns="http://www.w3.org/2000/svg" d="m32 160h16v16h-16z" fill="#12a19a" data-original="#dc4d41" style="" class=""/><g xmlns="http://www.w3.org/2000/svg" fill="#b94137"><path d="m200 176a8 8 0 0 1 -8-8v-16a8 8 0 0 1 16 0v16a8 8 0 0 1 -8 8z" fill="#076d68" data-original="#b94137" style="" class=""/><path d="m312 176a8 8 0 0 1 -8-8v-16a8 8 0 0 1 16 0v16a8 8 0 0 1 -8 8z" fill="#076d68" data-original="#b94137" style="" class=""/><path d="m248 168h16v40h-16z" fill="#076d68" data-original="#b94137" style="" class=""/><path d="m152 216c-4.418 0-8 4.418-8 0v-32a8 8 0 0 1 16 0v32c0 4.418-3.582 0-8 0z" fill="#076d68" data-original="#b94137" style="" class=""/><path d="m200 208c-4.418 0-8 4.418-8 0v-40c0-4.418 3.582 0 8 0s8-4.418 8 0v40c0 4.418-3.582 0-8 0z" fill="#076d68" data-original="#b94137" style="" class=""/><path d="m360 216c-4.418 0-8 4.418-8 0v-32c0-4.418 3.582 0 8 0s8-4.418 8 0v32c0 4.418-3.582 0-8 0z" fill="#076d68" data-original="#b94137" style="" class=""/><path d="m408 232c-4.418 0-8 4.418-8 0v-40c0-4.418 3.582 0 8 0s8-4.418 8 0v40c0 4.418-3.582 0-8 0z" fill="#076d68" data-original="#b94137" style="" class=""/><path d="m312 208c-4.418 0-8 4.418-8 0v-40c0-4.418 3.582 0 8 0s8-4.418 8 0v40c0 4.418-3.582 0-8 0z" fill="#076d68" data-original="#b94137" style="" class=""/><path d="m104 232c-4.418 0-8 4.418-8 0v-40a8 8 0 0 1 16 0v40c0 4.418-3.582 0-8 0z" fill="#076d68" data-original="#b94137" style="" class=""/></g><path xmlns="http://www.w3.org/2000/svg" d="m473.735 195.746-160-35.556a8.034 8.034 0 0 0 -1.735-.19h-112a8.034 8.034 0 0 0 -1.735.19l-154.723 34.383a8 8 0 1 0 3.471 15.619l153.865-34.192h110.244l159.143 35.365a8 8 0 1 0 3.47-15.619z" fill="#12a19a" data-original="#f55648" style="" class=""/><path xmlns="http://www.w3.org/2000/svg" d="m470.176 243.458-164.14-43.195a7.992 7.992 0 0 0 -2.036-.263h-96a7.992 7.992 0 0 0 -2.036.263l-152 40a8 8 0 1 0 4.072 15.474l151-39.737h93.93l163.134 42.932a8 8 0 0 0 4.072-15.474z" fill="#2e716e" data-original="#c7463b" style="" class=""/><path xmlns="http://www.w3.org/2000/svg" d="m456 248v80h-48v-8l-18.48-20.54a179.642 179.642 0 0 0 -267.04 0l-18.48 20.54-8 8h-40v-80l152-40h96z" fill="#1a7974" data-original="#a8a8a8" style="" class=""/><path xmlns="http://www.w3.org/2000/svg" d="m456 248v72h-48v-8l-18.48-20.54a179.642 179.642 0 0 0 -267.04 0l-18.48 20.54-16 16-32-8v-72l152-40h96z" fill="#82c5c1" data-original="#cbcbcb" style="" class=""/><circle xmlns="http://www.w3.org/2000/svg" cx="40" cy="152" fill="#12a19a" r="16" data-original="#dc4d41" style="" class=""/><circle xmlns="http://www.w3.org/2000/svg" cx="472" cy="152" fill="#12a19a" r="16" data-original="#dc4d41" style="" class=""/><path xmlns="http://www.w3.org/2000/svg" d="m55 264h57v16h-57z" fill="#1a7974" data-original="#a8a8a8" style="" class=""/><path xmlns="http://www.w3.org/2000/svg" d="m55 288h41v16h-41z" fill="#1a7974" data-original="#a8a8a8" style="" class=""/><path xmlns="http://www.w3.org/2000/svg" d="m400 264h57v16h-57z" fill="#1a7974" data-original="#a8a8a8" style="" class=""/><path xmlns="http://www.w3.org/2000/svg" d="m416 288h41v16h-41z" fill="#1a7974" data-original="#a8a8a8" style="" class=""/><path xmlns="http://www.w3.org/2000/svg" d="m56 328h-32v-152l8-8h16l8 8z" fill="#12a19a" data-original="#dc4d41" style="" class=""/><path xmlns="http://www.w3.org/2000/svg" d="m456 328h32v-152l-8-8h-16l-8 8z" fill="#12a19a" data-original="#dc4d41" style="" class=""/><path xmlns="http://www.w3.org/2000/svg" d="m496 362c-48 0-48-20-96-20s-48 20-96 20-48-20-96-20-48 20-96 20-48-20-96-20v-40c48 0 48 20 96 20s48-20 96-20 48 20 96 20 48-20 96-20 48 20 96 20z" fill="#6cbae5" data-original="#6cbae5" style="" class=""/></g></svg>
