<?xml version="1.0"?>
<svg xmlns="http://www.w3.org/2000/svg" xmlns:xlink="http://www.w3.org/1999/xlink" xmlns:svgjs="http://svgjs.com/svgjs" version="1.1" width="512" height="512" x="0" y="0" viewBox="0 0 512 512" style="enable-background:new 0 0 512 512" xml:space="preserve" class=""><g><path xmlns="http://www.w3.org/2000/svg" d="m135 512h-120c-8.285156 0-15-6.714844-15-15v-361.996094c0-74.441406 60.5625-135.003906 135.003906-135.003906h361.996094c8.285156 0 15 6.714844 15 15v120c0 8.285156-6.714844 15-15 15h-347v347c0 8.285156-6.714844 15-15 15zm0 0" fill="#12a19a" data-original="#0051bd" style="" class=""/><path xmlns="http://www.w3.org/2000/svg" d="m497 0h-346.96875v150h346.96875c8.285156 0 15-6.714844 15-15v-120c0-8.285156-6.714844-15-15-15zm0 0" fill="#117b76" data-original="#00347b" style="" class=""/></g></svg>
