<?xml version="1.0"?>
<svg xmlns="http://www.w3.org/2000/svg" xmlns:xlink="http://www.w3.org/1999/xlink" xmlns:svgjs="http://svgjs.com/svgjs" version="1.1" width="512" height="512" x="0" y="0" viewBox="0 0 64 64" style="enable-background:new 0 0 512 512" xml:space="preserve" class=""><g><g xmlns="http://www.w3.org/2000/svg" id="Layer_19" data-name="Layer 19"><path d="m8 55.997v-27.33l24-18.667 24 18.667v27.333z" fill="#c1e8e6" data-original="#e2e7f6" style="" class=""/><path d="m56 22.448-10-7.586v-4.917h10z" fill="#12a19a" data-original="#4c6cb5" style="" class=""/><path d="m32 10 27 21 3-4-28.2-21.4a2.974 2.974 0 0 0 -1.8-.6 2.974 2.974 0 0 0 -1.8.6l-28.2 21.4 3 4z" fill="#12a19a" data-original="#3b5892" style="" class=""/><path d="m4 56h56v6h-56z" fill="#12a19a" data-original="#4c6cb5" style="" class=""/><path d="m56 58v-2h-52v3h51a1 1 0 0 0 1-1z" fill="#13b9b1" data-original="#5e87ca" style="" class=""/><path d="m45 1.945a6 6 0 0 1 6 6v2a0 0 0 0 1 0 0 6 6 0 0 1 -6-6v-2a0 0 0 0 1 0 0z" fill="#559b2d" data-original="#559b2d" style="" class=""/><path d="m57 1.945a0 0 0 0 1 0 0v2a6 6 0 0 1 -6 6 0 0 0 0 1 0 0v-2a6 6 0 0 1 6-6z" fill="#6bc13b" transform="matrix(-1 0 0 -1 108 11.889)" data-original="#6bc13b" style=""/><path d="m47 27-15-12-15 12z" fill="#12a19a" data-original="#4c6cb5" style="" class=""/><path d="m14 56v-22h14v22" fill="#12a19a" data-original="#3b5892" style="" class=""/><path d="m32 34h20v16h-20z" fill="#78a0d4" data-original="#78a0d4" style="" class=""/><path d="m49 45v-11h-17v13h15a2 2 0 0 0 2-2z" fill="#89b0db" data-original="#89b0db" style="" class=""/><path d="m41 34h2v16h-2z" fill="#12a19a" data-original="#4c6cb5" style="" class=""/><path d="m23 44h2v2h-2z" fill="#213d68" data-original="#213d68" style="" class=""/><g fill="#3b5892"><path d="m28 18.2v8.8h2v-10.4z" fill="#12a19a" data-original="#3b5892" style="" class=""/><path d="m34 16.6v10.4h2v-8.8z" fill="#12a19a" data-original="#3b5892" style="" class=""/><path d="m39 20.6v6.4h2v-4.8z" fill="#12a19a" data-original="#3b5892" style="" class=""/><path d="m23 22.2v4.8h2v-6.4z" fill="#12a19a" data-original="#3b5892" style="" class=""/></g></g></g></svg>
