<svg id="Capa_1" enable-background="new 0 0 512 512" height="512" viewBox="0 0 512 512" width="512" xmlns="http://www.w3.org/2000/svg"><g><g fill="#8f4d29"><path d="m0 239.929h49.429v30h-49.429z"/><path d="m0 308.786h49.429v30h-49.429z"/><path d="m0 377.644h49.429v30h-49.429z"/><path d="m36.571 476.501h-36.571v-30h49.429z"/></g><path d="m462.571 239.929h49.429v30h-49.429z" fill="#66341a"/><path d="m462.571 308.786h49.429v30h-49.429z" fill="#66341a"/><path d="m462.571 377.644h49.429v30h-49.429z" fill="#66341a"/><path d="m121.66 249.589v217.26h268.68v-217.26z" fill="#ff501a"/><path d="m256 249.589h134.34v217.26h-134.34z" fill="#ca1d00"/><path d="m512 476.501h-36.571l-12.858-30h49.429z" fill="#66341a"/><path d="m402.29 239.929h-292.58l-14 118.29 14 118.28h292.58l14-118.28zm-60.96 30-85.33 69-85.33-69zm-201.62 13.55 92.43 74.74-92.43 74.73zm30.96 163.02 85.33-68.99 85.33 68.99zm201.62-13.55-92.43-74.73 92.43-74.74z" fill="#8f4d29"/><path d="m402.29 239.929h-146.29v30h85.33l-85.33 69v38.58l85.33 68.99h-85.33v30h146.29l14-118.28zm-30 193.02-92.43-74.73 92.43-74.74z" fill="#66341a"/><path d="m36.571 91.511h73.143v384.99h-73.143z" fill="#fdaa20"/><path d="m402.286 91.511h73.143v384.99h-73.143z" fill="#ff8902"/><path d="m201.14 91.509h109.72v76.55h-109.72z" fill="#fdaa20"/><path d="m256 91.509h54.86v76.55h-54.86z" fill="#ff8902"/><path d="m0 35.499h512v73.14h-512z" fill="#8f4d29"/><path d="m256 35.499h256v73.14h-256z" fill="#66341a"/></g></svg>