<?xml version="1.0" standalone="no"?>
<!DOCTYPE svg PUBLIC "-//W3C//DTD SVG 20010904//EN"
 "http://www.w3.org/TR/2001/REC-SVG-20010904/DTD/svg10.dtd">
<svg version="1.0" xmlns="http://www.w3.org/2000/svg"
 width="1346.000000pt" height="1349.000000pt" viewBox="0 0 1346.000000 1349.000000"
 preserveAspectRatio="xMidYMid meet">
<metadata>
Created by potrace 1.16, written by Peter Selinger 2001-2019
</metadata>
<g transform="translate(0.000000,1349.000000) scale(0.100000,-0.100000)"
fill="#000000" stroke="none">
<path d="M1339 10939 c-38 -6 -76 -28 -105 -61 -39 -46 -84 -126 -84 -149 0
-14 -4 -29 -9 -34 -14 -16 -41 -188 -41 -265 0 -74 21 -202 45 -275 35 -105
110 -194 180 -214 23 -6 88 -8 164 -5 80 4 136 2 153 -5 l28 -10 2 -3423 3
-3423 24 -27 c30 -34 147 -83 236 -98 136 -24 361 2 442 51 108 64 102 29 105
633 l3 520 65 -3 c36 -1 69 -8 73 -14 5 -7 5 -154 2 -328 -7 -333 -3 -373 36
-423 l20 -26 173 0 172 0 26 28 c15 15 31 39 37 55 l11 27 1529 0 1529 0 10
-30 c6 -16 23 -41 38 -55 26 -24 31 -25 181 -25 153 0 153 0 184 27 17 16 36
41 43 58 18 48 14 3051 -4 3096 -28 68 -58 82 -196 87 -90 4 -121 1 -157 -13
-76 -29 -88 -49 -96 -162 l-6 -98 -1530 0 -1530 0 -5 100 c-8 157 -30 175
-225 175 -144 0 -201 -17 -224 -66 -10 -22 -14 -133 -17 -464 -3 -239 -9 -451
-14 -471 -6 -20 -18 -43 -29 -53 -21 -19 -80 -31 -97 -19 -8 6 -9 296 -6 1016
l5 1009 185 211 c102 117 211 241 242 277 31 36 92 106 136 155 43 50 81 92
84 95 3 3 32 37 65 75 33 39 76 88 95 109 52 58 50 56 115 131 33 39 62 72 65
75 3 3 51 57 105 120 55 63 102 117 105 120 3 3 84 95 179 205 96 110 179 205
185 210 6 6 52 57 101 115 50 58 97 112 105 120 13 14 53 60 165 190 17 19 53
59 82 90 l52 55 428 2 c388 3 431 1 460 -14 30 -16 36 -16 65 -3 28 13 117 15
535 17 481 1 504 2 527 21 64 50 124 52 191 6 l37 -25 540 0 c482 0 543 -2
574 -16 31 -15 38 -15 67 -3 26 12 115 15 462 18 237 1 449 0 472 -3 51 -7 44
0 343 -345 117 -135 231 -265 254 -290 22 -25 68 -77 101 -115 51 -60 83 -96
140 -159 6 -6 37 -42 70 -81 33 -38 62 -72 65 -75 10 -9 165 -187 275 -315 33
-39 62 -72 65 -75 6 -5 131 -148 193 -220 17 -19 49 -55 71 -80 23 -25 68 -76
101 -115 33 -38 80 -92 105 -120 25 -28 70 -80 101 -115 31 -36 96 -109 143
-164 l86 -98 3 -827 c3 -1244 5 -1115 -19 -1148 -24 -32 -70 -49 -108 -39
l-26 6 0 163 c0 90 4 167 9 172 15 15 24 363 14 519 -9 137 -10 139 -39 163
-32 26 -71 27 -199 4 -181 -33 -215 -65 -223 -216 -4 -76 -8 -95 -21 -99 -30
-8 -115 -25 -206 -41 -49 -9 -110 -20 -135 -25 -25 -5 -63 -11 -85 -15 -22 -3
-60 -10 -85 -15 -25 -5 -85 -17 -135 -25 -109 -19 -166 -30 -265 -49 -41 -8
-120 -22 -175 -31 -55 -9 -116 -20 -135 -25 -19 -5 -80 -16 -135 -25 -55 -9
-118 -21 -140 -25 -22 -5 -58 -12 -80 -15 -22 -3 -60 -10 -85 -15 -25 -5 -85
-17 -135 -25 -109 -19 -166 -30 -265 -49 -41 -8 -120 -22 -175 -31 -55 -9
-116 -21 -135 -25 -32 -8 -102 -21 -220 -40 -25 -5 -85 -16 -135 -25 -49 -9
-112 -20 -140 -25 -27 -4 -74 -13 -103 -20 -80 -18 -82 -16 -82 94 0 93 -1 95
-32 126 -35 35 -24 34 -168 10 -161 -27 -184 -34 -222 -72 l-38 -38 0 -1619 0
-1618 21 -27 c22 -28 61 -34 128 -17 20 5 65 15 101 21 140 25 174 47 206 128
12 29 23 42 36 42 10 0 47 6 81 14 56 13 116 26 272 58 28 5 79 16 115 24 36
7 101 20 145 29 158 32 181 37 236 51 30 8 66 14 79 14 13 0 37 4 54 9 17 5
67 17 111 26 44 9 109 22 145 30 36 7 92 19 125 25 33 6 78 16 99 22 21 5 60
13 85 18 107 19 168 31 201 39 19 5 73 17 120 26 47 9 103 21 125 25 22 5 76
16 120 25 44 9 107 23 141 31 33 8 69 14 79 14 10 0 32 4 49 9 17 6 69 17 116
26 47 10 112 23 145 30 33 7 87 18 120 25 33 7 87 18 120 25 33 7 81 16 107
20 45 6 49 5 60 -22 25 -55 54 -62 177 -42 139 22 191 41 228 82 53 60 55 76
47 441 -5 246 -4 335 5 340 6 4 11 3 11 -3 0 -5 24 -11 53 -13 l52 -3 5 -531
5 -531 25 -30 c59 -71 162 -101 368 -110 98 -4 131 -1 163 11 22 9 51 16 65
16 39 0 131 57 159 98 l25 37 0 3412 0 3413 26 6 c14 4 78 4 142 1 157 -8 190
1 250 69 121 136 167 434 102 659 -6 22 -14 53 -17 69 -8 42 -84 147 -129 179
l-39 27 -5396 3 c-2968 1 -5411 -1 -5430 -4z m2499 -1019 c3 -17 -1318 -1343
-1343 -1348 -13 -3 -15 75 -15 670 0 502 3 677 12 686 9 9 179 11 677 9 583
-2 666 -4 669 -17z m7158 10 l24 -10 0 -678 c0 -373 -3 -682 -7 -686 -9 -8
-1363 1344 -1363 1361 0 6 10 14 23 16 46 9 1299 6 1323 -3z m-4848 -3878 c9
-7 12 -72 10 -293 l-3 -284 -1043 0 c-690 0 -1045 3 -1050 10 -4 6 -25 22 -47
37 -22 14 -49 33 -60 42 -11 9 -130 94 -265 191 -135 96 -250 179 -256 184 -6
5 -28 20 -50 34 -64 41 -98 74 -83 80 22 9 2833 7 2847 -1z m4280 -384 l2
-288 -27 -5 c-66 -15 -240 -49 -353 -70 -141 -26 -192 -36 -260 -51 -36 -8
-74 -14 -85 -14 -11 0 -49 -6 -85 -14 -36 -8 -90 -19 -120 -25 -81 -15 -219
-41 -270 -51 -25 -5 -61 -12 -80 -15 -19 -3 -55 -10 -80 -15 -58 -12 -201 -39
-265 -50 -79 -14 -206 -40 -255 -51 -25 -6 -74 -13 -110 -16 -71 -6 -43 -17
-297 118 -43 23 -118 63 -168 89 -49 26 -130 69 -180 95 -49 27 -116 62 -147
78 -54 28 -70 48 -49 61 5 3 37 10 72 16 35 5 102 17 149 26 47 8 108 20 135
24 28 5 86 16 130 25 44 8 109 20 144 25 35 6 67 13 72 15 4 3 38 10 76 15 37
5 100 16 138 24 90 18 121 24 225 42 47 8 108 19 135 24 28 5 88 17 135 25 47
9 115 23 151 30 37 8 78 15 92 15 15 0 36 4 49 9 13 5 57 14 98 21 116 19 158
27 255 45 50 9 116 21 148 26 33 5 62 11 67 14 4 3 36 9 71 15 35 5 100 17
144 25 44 8 107 19 140 25 33 6 76 14 95 19 19 5 51 9 70 8 l35 -2 3 -287z
m-7240 47 c43 -30 82 -58 87 -63 6 -5 24 -17 40 -28 84 -53 180 -127 180 -137
0 -9 -53 -12 -200 -12 l-200 0 -3 148 c-2 103 1 147 9 147 6 0 45 -25 87 -55z
m-663 -245 c8 -14 41 -13 65 2 10 7 23 9 27 4 13 -13 8 -1114 -6 -1163 -15
-53 -52 -83 -103 -83 l-39 0 2 468 c1 257 2 481 1 497 -1 17 1 87 4 158 5 116
7 127 24 127 10 0 22 -4 25 -10z m8466 -8 c24 3 24 2 31 -127 4 -71 7 -143 6
-160 0 -16 -1 -222 -2 -457 -1 -410 -2 -427 -21 -449 -30 -33 -73 -49 -107
-37 l-28 10 0 163 c0 99 4 166 10 170 6 4 10 114 10 298 0 161 3 362 7 448 l6
157 32 -9 c18 -5 43 -8 56 -7z m-7112 -240 c36 -27 76 -54 88 -60 12 -7 27
-18 35 -25 7 -7 36 -28 63 -47 28 -19 55 -38 60 -42 6 -4 120 -87 255 -183
302 -216 289 -207 314 -227 l21 -16 -25 -6 c-14 -4 -378 -5 -810 -4 l-785 3
-3 328 -2 327 361 0 361 0 67 -48z m2279 -279 l-3 -328 -431 -3 -431 -2 -224
160 c-123 87 -247 176 -276 197 -29 21 -131 94 -227 162 -96 69 -173 128 -170
133 3 4 401 8 885 8 l879 0 -2 -327z m4269 -88 c2 -170 -1 -316 -6 -324 -8
-12 -46 -22 -206 -50 -65 -12 -161 -31 -205 -41 -19 -5 -64 -14 -100 -21 -36
-6 -83 -15 -105 -20 -22 -4 -81 -15 -131 -24 l-92 -17 -58 29 c-33 16 -99 51
-149 78 -49 26 -117 62 -150 80 -33 17 -100 54 -150 80 -181 97 -291 156 -343
182 -29 14 -49 30 -45 33 9 8 200 49 368 80 28 5 86 16 130 24 44 9 94 18 110
21 17 3 66 12 110 21 44 9 100 20 125 24 25 5 83 16 130 25 143 28 233 45 285
55 28 4 86 16 130 24 44 9 105 21 135 26 30 6 69 14 85 19 17 6 53 9 80 8 l50
-2 2 -310z m-3017 252 c14 -8 68 -36 120 -64 52 -28 131 -69 175 -92 44 -24
86 -49 94 -56 12 -12 11 -15 -10 -19 -87 -17 -144 -28 -219 -41 -47 -9 -108
-21 -136 -27 -29 -6 -57 -8 -63 -4 -12 8 -16 297 -4 309 9 10 14 9 43 -6z
m781 -415 c41 -22 108 -57 149 -79 41 -22 116 -62 165 -88 89 -47 148 -79 340
-182 55 -29 112 -58 128 -64 15 -6 27 -15 27 -20 0 -18 -46 -30 -260 -69 -25
-5 -81 -16 -125 -25 -44 -9 -106 -21 -138 -26 -33 -5 -63 -12 -68 -15 -5 -3
-35 -10 -67 -15 -31 -5 -91 -16 -132 -24 -41 -8 -101 -19 -132 -24 -32 -5 -61
-12 -66 -15 -6 -3 -38 -10 -73 -16 -35 -5 -98 -17 -139 -26 -41 -9 -95 -20
-120 -24 -25 -5 -83 -16 -130 -25 -148 -30 -169 -32 -180 -21 -16 16 -14 641
3 655 13 10 57 21 172 41 28 5 84 16 125 24 90 18 226 44 295 56 28 6 59 12
70 14 53 10 86 4 156 -32z m-2968 -427 c115 -82 312 -224 438 -314 168 -120
226 -167 215 -173 -8 -4 -637 -7 -1398 -6 l-1383 3 -3 310 c-1 170 0 316 3
323 4 10 192 12 962 10 l958 -3 208 -150z m921 149 c14 -5 16 -33 16 -205 0
-211 -2 -218 -46 -184 -10 8 -29 15 -41 15 -13 0 -23 5 -23 10 0 6 -13 10 -30
10 -74 0 -143 52 -156 117 -5 24 -31 48 -134 121 -70 51 -130 99 -134 107 -5
13 29 15 263 15 148 0 276 -3 285 -6z m4286 -294 c0 -135 -3 -200 -11 -200 -5
0 -35 11 -65 25 -30 14 -64 25 -75 25 -33 0 -84 26 -110 56 -28 32 -29 33
-150 97 -115 60 -152 84 -142 89 11 7 205 48 368 78 28 5 68 14 90 19 22 5 52
9 68 10 l27 1 0 -200z m-1084 -39 c5 -5 54 -32 109 -61 55 -29 132 -69 170
-90 39 -21 109 -58 158 -84 48 -25 124 -66 170 -90 45 -24 105 -55 133 -70 29
-15 59 -35 69 -46 16 -18 15 -19 -22 -25 -21 -3 -56 -10 -78 -15 -22 -4 -78
-16 -125 -25 -47 -9 -112 -23 -145 -30 -33 -7 -87 -18 -120 -25 -33 -6 -91
-18 -130 -26 -38 -8 -90 -19 -115 -23 -135 -28 -212 -43 -270 -56 -36 -7 -92
-19 -125 -25 -61 -12 -128 -25 -270 -55 -44 -9 -100 -21 -125 -26 -25 -4 -76
-15 -115 -23 -38 -8 -97 -20 -130 -26 -33 -7 -87 -18 -120 -25 -33 -7 -98 -21
-145 -30 -47 -9 -103 -21 -125 -25 -22 -5 -75 -16 -117 -24 -43 -9 -113 -23
-155 -32 -43 -8 -98 -20 -123 -25 -25 -4 -77 -16 -116 -25 -40 -8 -83 -14 -95
-12 l-24 3 0 324 0 324 25 8 c14 4 52 12 85 19 33 6 89 18 125 25 36 7 92 19
125 25 57 11 85 17 270 54 44 9 105 21 135 27 52 10 80 15 275 54 44 9 103 21
130 26 28 6 79 17 115 24 36 8 79 16 95 18 39 5 358 70 425 86 48 12 164 13
176 2z"/>
<path d="M5447 9753 c-5 -4 -97 -10 -205 -13 -227 -6 -243 -11 -286 -91 l-26
-47 0 -411 c0 -385 1 -414 19 -449 24 -47 56 -76 100 -91 49 -16 3333 -16
3382 0 44 15 76 44 100 91 18 35 19 64 19 449 l0 411 -26 47 c-44 81 -56 85
-314 93 -124 3 -241 9 -261 13 -23 4 -39 3 -43 -4 -5 -8 -176 -11 -579 -11
-477 -1 -576 -3 -597 -15 -31 -18 -94 -19 -123 -2 -17 9 -156 13 -557 18 -294
3 -549 9 -565 13 -17 4 -34 4 -38 -1z"/>
</g>
</svg>
