<?xml version="1.0"?>
<svg xmlns="http://www.w3.org/2000/svg" xmlns:xlink="http://www.w3.org/1999/xlink" xmlns:svgjs="http://svgjs.com/svgjs" version="1.1" width="512" height="512" x="0" y="0" viewBox="0 0 62 60" style="enable-background:new 0 0 512 512" xml:space="preserve" class=""><g><g xmlns="http://www.w3.org/2000/svg" id="082---Up-Arrows" fill="none"><g id="Icons" transform="translate(2 1)"><path id="Shape" d="m56.54 33.94c.3202671.1180503.6773856.0788101.9643781-.1059659s.4705261-.4936269.4956219-.8340341v-5c-.0022221-.2553902-.1109679-.498256-.3-.67l-27.9-27.02c-.4544653-.4101852-1.1455347-.4101852-1.6 0l-27.9 27.02c-.18903205.171744-.29777792.4146098-.3.67v5c.02509581.3404072.20862938.6492581.49562189.8340341s.64411103.2240162.96437811.1059659l25.43-8.37h.01l-26.6 25.76c-.18903205.171744-.29777792.4146098-.3.67v5c.02509581.3404072.20862938.6492581.49562189.8340341s.64411103.2240162.96437811.1059659l27.18-8.94c.2353704-.0666667.4846296-.0666667.72 0l27.18 8.94c.3202671.1180503.6773856.0788101.9643781-.1059659s.4705261-.4936269.4956219-.8340341v-5c-.0022221-.2553902-.1109679-.498256-.3-.67l-26.6-25.76h.009z" fill="#0e6964" data-original="#955ba5" style="" class=""/><path id="Shape" d="m58 28c-.0250958.3404072-.2086294.6492581-.4956219.8340341s-.644111.2240162-.9643781.1059659l-1.83-.6-.01-.01-25.34-8.33c-.2353704-.0666667-.4846296-.0666667-.72 0l-23.64 7.77v.01h-.01l-3.53 1.16c-.32026708.1180503-.6773856.0788101-.96437811-.1059659s-.47052608-.4936269-.49562189-.8340341c.00222208-.2553902.11096795-.498256.3-.67l26.68-25.84 1.22-1.18c.4544653-.4101852 1.1455347-.4101852 1.6 0l27.9 27.02c.1890321.171744.2977779.4146098.3.67z" fill="#178f89" data-original="#6a1b9a" style="" class=""/><path id="Shape" d="m54.7 28.33-25.34-8.33c-.2353704-.0666667-.4846296-.0666667-.72 0l-23.64 7.77v.01h-.01l-3.53 1.16c-.32026708.1180503-.6773856.0788101-.96437811-.1059659s-.47052608-.4936269-.49562189-.8340341c.00222208-.2553902.11096795-.498256.3-.67l26.68-25.84z" fill="#12a19a" data-original="#9d27b0" style="" class=""/><g fill="#6a1b9a"><path id="Shape" d="m58 28v5c-.0250958.3404072-.2086294.6492581-.4956219.8340341s-.644111.2240162-.9643781.1059659l-25.43-8.37h-.01l-1.3-1.26c-.2167492-.2025734-.503347-.3136301-.8-.31v-4.05c.1219229-.0030632.2435266.0138262.36.05l27.18 8.94c.3202671.1180503.6773856.0788101.9643781-.1059659s.4705261-.4936269.4956219-.8340341z" fill="#178f89" data-original="#6a1b9a" style="" class=""/><path id="Shape" d="m29 19.95v4.05c-.296653-.0036301-.5832508.1074266-.8.31l-1.22 1.18-.08.08h-.01l-25.43 8.37c-.32026708.1180503-.6773856.0788101-.96437811-.1059659s-.47052608-.4936269-.49562189-.8340341v-5c.02509581.3404072.20862938.6492581.49562189.8340341s.64411103.2240162.96437811.1059659l3.53-1.16.01-.01 23.64-7.77c.1164734-.0361738.2380771-.0530632.36-.05z" fill="#178f89" data-original="#6a1b9a" style="" class=""/><path id="Shape" d="m58 52c-.0250958.3404072-.2086294.6492581-.4956219.8340341s-.644111.2240162-.9643781.1059659l-1.83-.6-.01-.01-25.34-8.33c-.2353704-.0666667-.4846296-.0666667-.72 0l-23.64 7.77v.01h-.01l-3.53 1.16c-.32026708.1180503-.6773856.0788101-.96437811-.1059659s-.47052608-.4936269-.49562189-.8340341c.00222208-.2553902.11096795-.498256.3-.67l26.59-25.76h.01l.08-.08 1.22-1.18c.4532029-.413455 1.1467971-.413455 1.6 0l1.3 1.26h.01l26.59 25.76c.1890321.171744.2977779.4146098.3.67z" fill="#178f89" data-original="#6a1b9a" style="" class=""/></g><path id="Shape" d="m54.7 52.33-25.34-8.33c-.2353704-.0666667-.4846296-.0666667-.72 0l-23.64 7.77v.01h-.01l-3.53 1.16c-.32026708.1180503-.6773856.0788101-.96437811-.1059659s-.47052608-.4936269-.49562189-.8340341c.00222208-.2553902.11096795-.498256.3-.67l26.68-25.84z" fill="#12a19a" data-original="#9d27b0" style="" class=""/><path id="Shape" d="m58 52v5c-.0250958.3404072-.2086294.6492581-.4956219.8340341s-.644111.2240162-.9643781.1059659l-27.18-8.94c-.1164734-.0361738-.2380771-.0530632-.36-.05v-5c.1219229-.0030632.2435266.0138262.36.05l27.18 8.94c.3202671.1180503.6773856.0788101.9643781-.1059659s.4705261-.4936269.4956219-.8340341z" fill="#178f89" data-original="#6a1b9a" style="" class=""/><path id="Shape" d="m29 43.95v5c-.1219229-.0030632-.2435266.0138262-.36.05l-27.18 8.94c-.32026708.1180503-.6773856.0788101-.96437811-.1059659s-.47052608-.4936269-.49562189-.8340341v-5c.02509581.3404072.20862938.6492581.49562189.8340341s.64411103.2240162.96437811.1059659l3.53-1.16.01-.01 23.64-7.77c.1164734-.0361738.2380771-.0530632.36-.05z" fill="#178f89" data-original="#6a1b9a" style="" class=""/></g><path id="Shape" d="m60.4 27.61-27.906-27.01c-.836579-.79695242-2.151421-.79695242-2.988 0l-27.9 27.01c-.3474617.3363602-.5555928.7911784-.583 1.274-.031.261-.023-.843-.023 5.138.04790896 1.112507.9684992 1.9871119 2.082 1.978.515 0-1.2.513 22-7.125l-23.477 22.735c-.34740292.3367106-.55520283.7919423-.582 1.275-.033.274-.023-.9-.023 5.131.03008298.6583725.36952812 1.2638052.91552367 1.6329234s1.23431403.4585012 1.85647633.2410766c29.216-9.61 27.11-8.935 27.275-8.94 28.991 9.534 27.353 9.05 27.87 9.05 1.0933891.0101213 2.005888-.8322865 2.083-1.923.008-.1.013-4.918-.02-5.192-.0270351-.4832895-.2347775-.9387521-.582-1.276l-23.483-22.733 21.32 7.017c.6243823.2159249 1.3141531.1231533 1.8592974-.2500685.5451443-.3732217.8811461-.9827241.9057026-1.6429315 0-6.086.012-4.824-.023-5.115-.0254655-.4823619-.2314368-.937498-.577-1.275zm-29.5-25.578c.156-.155-1.608-1.753 28.049 26.968-.1.033.931.332-27.294-8.95-.431166-.1339729-.892834-.1339729-1.324 0l-27.173 8.937c-.201.057-1.971 1.813 27.742-26.955zm-27.745 31.956c-.223.075-.155.178-.155-3 .6.024-1.447.629 27-8.727v1.989c-.42.22-.45.3-1.62 1.435zm-.074 24.012c-.116 0-.081.267-.081-3.01.613.025-1.3.581 27-8.726v2.894c-27.709 9.113-26.819 8.842-26.919 8.842zm28.919-8.842v-2.893c28.369 9.329 26.393 8.735 26.913 8.735.125 0 .087-.394.087 2.965-.075.098 1.243.482-27-8.807zm26.847 3.83-27.192-8.942c-.431166-.1339729-.892834-.1339729-1.324 0-28.347 9.328-27.182 8.966-27.282 8.954 29.635-28.7 27.895-27.123 28.051-26.968 29.84 28.891 27.954 27.023 27.747 26.956zm-25.227-27.303c-1.175-1.137-1.22-1.226-1.62-1.435v-1.985c28.369 9.329 26.393 8.735 26.913 8.735.125 0 .087-.394.087 2.965-.069.099 1.625.608-25.38-8.28z" fill="#066762" data-original="#000000" style="" class=""/></g></g></svg>
